<svg width="40" height="40" xmlns="http://www.w3.org/2000/svg">
 <!-- Created with Method Draw - http://github.com/duopixel/Method-Draw/ -->
 <g>
  <title>background</title>
  <rect fill="none" id="canvas_background" height="42" width="42" y="-1" x="-1"/>
  <g display="none" overflow="visible" y="0" x="0" height="100%" width="100%" id="canvasGrid">
   <rect fill="url(#gridpattern)" stroke-width="0" y="0" x="0" height="100%" width="100%"/>
  </g>
 </g>
 <g>
  <title>Layer 1</title>
  <path stroke="#000000" id="svg_3" d="m35.78207,19.24827c-1.53844,-0.30945 -3.13966,-0.5132 -4.43984,-0.56835l-0.22929,-0.00919c0.05252,-0.13787 0.09223,-0.23132 0.10504,-0.24511c0.02818,-0.02757 0.05124,-0.144 0.0538,-0.25736c0,-0.06281 0.02306,-0.26656 0.05892,-0.53618c0.35227,0.01532 0.81982,0.02757 1.32965,0.03217c1.96885,0.01838 4.02865,0.20834 5.44156,0.50707c0.8416,0.1777 1.11957,0.17158 0.4983,-0.00919c-0.62896,-0.1823 -2.49405,-0.45039 -3.97997,-0.56681c-0.99788,-0.08119 -2.42872,-0.11183 -3.2716,-0.09498c0.02434,-0.17464 0.05252,-0.36919 0.08198,-0.56835c0.11913,-0.77056 0.15884,-1.54572 0.1614,-3.08837c0.00256,-2.39287 -0.10504,-3.0516 -0.75705,-4.63408c-0.26516,-0.64647 -0.56491,-1.1949 -0.92742,-1.69125c0.3164,-1.11678 0.30871,-2.84632 -0.01921,-4.36293c-0.27028,-1.24393 -0.36508,-1.32359 -1.30787,-1.08461c-0.79932,0.20375 -1.43981,0.48103 -2.26091,0.97584c-0.38813,0.23439 -0.92358,0.59898 -1.31171,0.88545c-1.01197,-0.42588 -2.05852,-0.70775 -3.17552,-0.85941c-1.13238,-0.15319 -3.90824,-0.0674 -4.8933,0.15013c-0.96329,0.21294 -1.83051,0.47337 -2.61574,0.78282c-0.39198,-0.28953 -0.96073,-0.68018 -1.36679,-0.92528c-0.82494,-0.49634 -1.46543,-0.77209 -2.26732,-0.97584c-0.94023,-0.24051 -1.03759,-0.15932 -1.30659,1.08461c-0.33305,1.53652 -0.33561,3.29518 -0.0064,4.40889c0.03843,0.12715 0.06149,0.21753 0.07045,0.288c-1.33477,2.00989 -1.7703,4.25876 -1.4808,7.39768c0.07558,0.81805 0.19215,1.56869 0.35483,2.25653c-0.85184,-0.00613 -2.06364,0.03064 -2.93854,0.09804c-1.48849,0.11796 -3.35358,0.38298 -3.98253,0.56528c-0.61999,0.18077 -0.34458,0.1869 0.4983,0.01072c1.41291,-0.29719 3.47399,-0.49022 5.44156,-0.50707c0.37148,-0.00153 0.71862,-0.01072 1.01709,-0.01992c0.08967,0.36307 0.19215,0.70928 0.30871,1.03865l-0.00897,0.00153c-1.30018,0.05362 -2.90012,0.25736 -4.43856,0.56681c-1.15415,0.23132 -2.85784,0.69396 -3.05639,0.82724c-0.2088,0.13941 -0.03843,0.10877 0.85569,-0.16238c1.63067,-0.49328 3.75068,-0.87167 6.37667,-1.13516l0.29334,-0.03064c0.56363,1.56563 1.43212,2.76054 2.65929,3.69195c0.75065,0.57141 1.95348,1.15814 2.55938,1.25005c0.16653,0.02451 0.65073,0.144 1.07601,0.26349c0.42656,0.11949 1.26047,0.29873 1.85228,0.40137l0.01409,0c-0.01153,0.00919 -0.02178,0.01532 -0.03202,0.02451c-0.71734,0.44579 -1.18362,1.13975 -1.49745,2.23202c-0.14091,0.05055 -0.3164,0.11949 -0.50598,0.19762c-0.67763,0.27575 -0.94151,0.33243 -1.62811,0.33856c-0.71222,0.00613 -0.88131,-0.03064 -1.30659,-0.26962c-0.61871,-0.34468 -1.19514,-0.9789 -1.57944,-1.73568c-0.64177,-1.26537 -1.75109,-2.16002 -2.67595,-2.16002c-0.79036,0 -0.94023,0.38298 -0.36892,0.94214c0.86081,0.84103 1.50386,1.69891 1.76774,2.35457c0.14859,0.36766 0.37661,0.93601 0.50854,1.26231c0.13963,0.34775 0.43809,0.81958 0.72247,1.14588c0.66867,0.7629 1.31427,1.1275 2.27756,1.29908c0.64561,0.11336 0.80445,0.11336 1.56663,-0.00306c0.36764,-0.05362 0.67763,-0.11643 0.9556,-0.19455c0,0.37379 0,0.80426 0,1.3098c0,2.70539 -0.0269,3.57552 -0.11657,3.82982c-0.16909,0.48409 -0.54825,0.98197 -0.91717,1.20563c-0.36764,0.22366 -0.48164,0.4703 -0.32665,0.69703c0.08582,0.12255 0.25107,0.144 0.80573,0.10111c1.05296,-0.07813 1.7972,-0.54383 2.17637,-1.36495c0.12169,-0.26349 0.14987,-0.79354 0.1883,-3.55101c0.04099,-2.99186 0.05892,-3.27986 0.22161,-3.70727c0.09863,-0.2543 0.24082,-0.53005 0.32024,-0.60511c0.13322,-0.13175 0.14219,0.12868 0.14219,3.70727c-0.00128,3.94931 -0.03459,4.42574 -0.36508,5.18558c-0.0743,0.17311 -0.2152,0.3983 -0.31384,0.50554c-0.17293,0.18843 -0.24595,0.67098 -0.12554,0.81652c0.19855,0.23592 1.19386,-0.13481 1.73699,-0.64647c0.92486,-0.87626 1.03502,-1.60087 1.04271,-6.83393l0.00384,-3.06999l0.28053,0.03217l0.28053,0.03064l0.04611,4.01519c0.05252,4.52072 0.06021,4.58659 0.70325,5.45979c0.36508,0.49328 0.73271,0.76596 1.33093,0.9789c0.80061,0.288 1.04143,-0.15626 0.50342,-0.92682c-0.5854,-0.83796 -0.61358,-1.15814 -0.58156,-6.11852c0.02178,-3.18028 0.02178,-3.18028 0.19343,-2.99492c0.36123,0.39217 0.43041,1.03558 0.43041,4.01825c0,3.7042 0.08839,4.05655 1.18233,4.70302c0.51111,0.29873 0.65458,0.33549 1.30915,0.33856c0.69685,0.00306 0.73912,-0.00919 0.76474,-0.22673c0.02178,-0.17617 -0.06405,-0.29566 -0.38941,-0.53311c-0.42656,-0.31405 -0.72247,-0.71541 -0.90821,-1.22095c-0.07045,-0.19455 -0.11785,-1.46912 -0.14987,-4.09331c-0.04611,-3.66591 -0.05636,-3.83289 -0.24723,-4.40736c-0.25747,-0.77209 -0.65073,-1.3818 -1.14903,-1.78623c-0.12938,-0.10111 -0.25876,-0.18536 -0.42656,-0.24817c0.20624,-0.02451 0.40607,-0.05055 0.59949,-0.08426c2.01368,-0.32017 3.07817,-0.58673 3.93258,-0.98197c1.80745,-0.83184 3.02949,-2.21364 3.69175,-4.17297c0.05892,-0.17464 0.11785,-0.34009 0.16781,-0.47337l0.50983,0.05055c2.62727,0.26502 4.74727,0.64341 6.37795,1.13822c0.89412,0.27115 1.06449,0.30332 0.85569,0.16085c-0.19471,-0.13021 -1.8984,-0.59132 -3.05127,-0.82265zm-7.70375,-0.04749c-0.29847,0.78435 -1.1311,1.79236 -1.80361,2.18759c-0.66354,0.39217 -1.70369,0.6909 -2.88218,0.83337c-0.80573,0.09804 -5.29937,0.12715 -6.04105,0.03983c-2.45562,-0.288 -3.83138,-0.85328 -4.84591,-1.98538c-0.96073,-1.07541 -1.40907,-2.53534 -1.33093,-4.33229c0.04996,-1.12444 0.27669,-1.83065 0.86978,-2.68853c0.53929,-0.78128 1.10676,-1.26384 1.77542,-1.50895c0.55978,-0.20528 2.27756,-0.22366 4.58715,-0.04596c1.02093,0.07813 1.86509,0.07813 2.88474,0c2.41591,-0.1823 4.02865,-0.16238 4.6243,0.05821c0.93639,0.34622 1.78951,1.27763 2.3019,2.51849c0.23057,0.55456 0.27541,0.79048 0.30871,1.64682c0.04611,1.17959 -0.12425,2.4327 -0.44834,3.2768zm-12.18202,-5.06456c-1.37448,-0.288 -2.15971,2.52615 -1.10548,3.9631c0.50086,0.68171 0.94536,0.79354 1.5013,0.37992c0.51495,-0.38451 0.7942,-1.10299 0.7942,-2.0344c0,-1.24239 -0.47268,-2.15542 -1.19002,-2.30862zm8.34295,0.16851c-1.37448,-0.288 -2.161,2.52309 -1.10676,3.96157c0.50214,0.68171 0.94536,0.79507 1.50258,0.37839c0.51367,-0.38298 0.7942,-1.10299 0.7942,-2.0344c0,-1.2378 -0.47268,-2.15389 -1.19002,-2.30555zm-3.69688,5.53333c-0.02946,0.11336 -0.17293,0.28187 -0.31768,0.37226c-0.36636,0.22519 -0.63024,0.14707 -1.01709,-0.27422c-0.23954,-0.2589 -0.34842,-0.39524 -0.42144,-0.12409c-0.06789,0.25124 0.35867,0.75524 0.68788,0.90997c0.30231,0.144 0.51879,0.1486 0.84672,-0.01532c0.32537,-0.16238 0.60974,-0.59898 0.60974,-0.88239c0,-0.26349 -0.3164,-0.25124 -0.38813,0.01379zm-0.40607,-0.88086c0.2088,-0.2206 0.25619,-0.67405 0.05636,-0.91456s-0.6059,-0.20375 -0.76474,0.06587c-0.18446,0.31558 -0.08582,0.55609 0.04611,0.81192c0.20496,0.18996 0.48036,0.22826 0.66226,0.03677z" fill-opacity="null" stroke-opacity="null" stroke-width="0.1" fill="#000000"/>
 </g>
</svg>