<svg width="40" height="40" xmlns="http://www.w3.org/2000/svg">
 <!-- Created with Method Draw - http://github.com/duopixel/Method-Draw/ -->
 <g>
  <title>background</title>
  <rect fill="none" id="canvas_background" height="42" width="42" y="-1" x="-1"/>
  <g display="none" overflow="visible" y="0" x="0" height="100%" width="100%" id="canvasGrid">
   <rect fill="url(#gridpattern)" stroke-width="0" y="0" x="0" height="100%" width="100%"/>
  </g>
 </g>
 <g>
  <title>Layer 1</title>
  <path id="svg_1" d="m33.90865,3.5625l-27.81731,0c-1.39592,0 -2.52885,1.13292 -2.52885,2.52885l0,27.81731c0,1.39592 1.13292,2.52885 2.52885,2.52885l27.81731,0c1.39592,0 2.52885,-1.13292 2.52885,-2.52885l0,-27.81731c0,-1.39592 -1.13292,-2.52885 -2.52885,-2.52885zm-20.26997,29.91119l-5.05769,0l0,-17.70192l5.05769,0l0,17.70192zm-2.52885,-19.59856c-1.7487,0 -3.16106,-1.41489 -3.16106,-3.16106s1.41236,-3.16106 3.16106,-3.16106s3.16106,1.41489 3.16106,3.16106s-1.41236,3.16106 -3.16106,3.16106zm20.23077,19.59856l-5.05769,0l0,-10.7476c0,-0.50577 -0.50956,-1.33397 -0.86866,-1.53375c-0.47416,-0.26679 -1.59444,-0.28955 -2.10526,-0.04299l-2.08377,1.00269l0,11.32164l-5.05769,0l0,-17.70192l5.05769,0l0,0.77636c2.00158,-0.91418 4.77952,-0.8244 6.66351,0.23265c2.00032,1.12028 3.45188,3.62131 3.45188,5.94532l0,10.7476z" stroke-width="1.5" stroke="#000000" fill="#000000"/>
 </g>
</svg>