<svg width="400" height="400" xmlns="http://www.w3.org/2000/svg">

 <g>
  <title>background</title>
  <rect fill="none" id="canvas_background" height="402" width="402" y="-1" x="-1"/>
 </g>
 <g>
  <title>Layer 1</title>
  <path d="m250,56.12525c0,0 -4,-3 -4,-3c0,0 -7,4 -7,4c0,0 -4,-1 -4,-1c0,0 11,3 11,3c2.51,-2.67 4.91,-1.41 7.05,1.23c3.14,3.86 5.23,11.04 7.16,15.77c5.61,13.76 8.11,25.59 11.07,40c2.24,10.87 4.18,15.17 4.72,27c-2.53,-3.89 -2.2,-6.6 -3.12,-11c0,0 -5.37,-23.82 -5.37,-23.82c-2.03,-5.73 -7.43,-6.31 -3.51,-14.18c0,0 -3,0 -3,0c0,0 -10.09,-18.99 -10.09,-18.99c0,0 -4.91,-7.01 -4.91,-7.01c0,0 4,1 4,1c-1.7,-1.8 -1.98,-2.87 -4,-1c0,0 -5,-2 -5,-2c0,0 3,8 3,8c0,0 -3,-4 -3,-4c0,0 7,8 7,8c-4.35,0.67 -7.5,-0.25 -10,-4c0,0 -6,1 -6,1c0,0 3,-1 3,-1c-7.49,-8.69 -8.8,-5.72 -15,-4c0,0 8,7 8,7c-5.2,-2.9 -11.19,-2 -17,-2c0,0 6,-5 6,-5c0,0 -13,7 -13,7c0.88,-4.07 3.94,-5.32 7,-8c0,0 -1,-1 -1,-1c0,0 -6,1 -6,1c0,0 1,3 1,3c-3.3,2.36 -7.38,6.94 -11,3c-3.13,1.88 -5.28,3.11 -4,7c0,0 -6.41,3.43 -6.41,3.43c0,0 -5.58,15.57 -5.58,15.57c0,0 -7.65,26 -7.65,26c0,0 -2.36,15 -2.36,15c-2.25,-5.68 0.56,-12.07 1.42,-18c0,0 2.54,-14 2.54,-14c0,0 1.49,-10 1.49,-10c1.57,-6.97 3.97,-13.85 4.55,-21c0,0 3,0 3,0c0.42,-9.05 2.4,-14.04 6.95,-21.72c1.29,-2.17 3.29,-5.96 5.39,-7.26c1.34,-0.84 2.22,-0.78 3.66,-1.02c0,0 -2,-3 -2,-3c8.23,-5.08 10.75,-4 20,-4c12.91,0 29.91,-0.92 35,14zm-12,-7c0,0 0,2 0,2c0,0 6,0 6,0c0,0 0,-2 0,-2c0,0 -6,0 -6,0zm5,12c0,0 0,1 0,1c0,0 1,-1 1,-1c0,0 -1,0 -1,0zm-37,7c0,0 6,-3 6,-3c-3.48,-0.83 -4.25,0.08 -6,3zm21,-4c0,0 0,1 0,1c0,0 1,-1 1,-1c0,0 -1,0 -1,0zm-5,2c0,0 -4,1 -4,1c0,0 0,2 0,2c2.51,-0.41 3.72,-0.22 4,-3zm9,5c-3.18,1.05 -4.15,0.65 -7,-1c0,0 7,1 7,1zm-37,6c0,0 0,1 0,1c0,0 -1,-1 -1,-1c0,0 1,0 1,0zm6,0c0,0 0,1 0,1c0,0 -1,-1 -1,-1c0,0 1,0 1,0zm36,2c-2.22,2.47 -3.81,1.96 -7,2c0,0 7,-2 7,-2zm-15,3c0,0 -7,1 -7,1c0,0 7,-1 7,-1zm-54,62c0,0 -1,11 -1,11c0,0 -1,-11 -1,-11c0,0 2,0 2,0zm110,1c0,0 1,8 1,8c-1.79,-3.08 -2.24,-4.6 -1,-8zm102,0c-0.05,2.03 -0.03,4.03 -0.7,5.99c-1.33,3.9 -10.26,14.44 -13.45,17.59c-14.88,14.65 -36.33,27.11 -54.26,38c-4.54,2.75 -18.59,8.76 -20.56,12.48c-1.97,3.71 0.32,8.07 0.88,11.94c0,0 0,7 0,7c0,0 -3.91,-19 -3.91,-19c-6.45,1.99 -8.46,2.87 -15,1c0,0 1,3 1,3c0,0 -22,1 -22,1c0,0 -24,-0.83 -24,-0.83c-3.55,-0.35 -5.28,0.05 -9,-0.95c0,0 -11,-3.51 -11,-3.51c0,0 -15,-4.08 -15,-4.08c0,0 -14,-4.72 -14,-4.72c-3.37,-0.97 -12.05,-4.9 -14.94,-4.47c-4.85,0.72 -4.54,9.58 -5.06,13.56c-2.08,-5.24 0.22,-10.74 -2.6,-13.09c-1.34,-1.13 -4.59,-1.14 -6.4,-1.53c0,0 -18,-2.64 -18,-2.64c-7.94,-1.33 -23.6,-4.93 -31,-4.7c-9.46,0.3 -25.73,5.78 -35,8.98c0,0 -11,3.42 -11,3.42c-5.66,0.78 -7.36,-3.66 -14,5.56c0,0 -2,0 -2,0c0,0 -3,-2 -3,-2c2.71,-5.46 5.26,-5.88 10,-9.09c3,-2.03 5.63,-4.64 9,-6.06c4.36,-1.83 13.91,-2.34 19,-2.94c0,0 8,-1.7 8,-1.7c0,0 22,-1.38 22,-1.38c0,0 12,-1.79 12,-1.79c14.81,-0.58 32.2,9.16 44,9.96c0,0 2,-23 2,-23c3.24,8.16 -2.42,18.71 1.6,23.7c2.53,3.15 16.89,7.04 21.4,8.19c0,0 32,7.08 32,7.08c0,0 7,1.91 7,1.91c0,0 6,0 6,0c6.32,0.09 12.75,0.82 19,0c0,0 23,-4.69 23,-4.69c6.56,-1.12 7.47,-3.15 14,0c0,0 1,-1.19 1,-1.19c-0.25,-3.07 -0.53,-3.17 2,-5c0,0 4,5 4,5c2.54,-3.91 7.85,-4.68 12,-6.42c6.97,-2.94 13.68,-6.81 19.96,-11.01c0,0 16.05,-14.11 16.05,-14.11c0,0 17.99,-15 17.99,-15c0,0 13.49,-10.43 13.49,-10.43c0,0 7.51,-10.03 7.51,-10.03zm-214,10c0,0 0,6 0,6c0,0 0,-6 0,-6zm115,6c0,0 1,12 1,12c-2.42,-3.74 -2.63,-7.88 -1,-12zm-116,3c0,0 -1,13 -1,13c-1.66,-4.2 -1.47,-9.19 1,-13zm118,11c0,0 1,9 1,9c-1.92,-3.31 -2.39,-5.37 -1,-9zm3,14c0,0 1,14 1,14c-2.38,-4.09 -2.75,-9.59 -1,-14zm-232,16c0,0 7,-1 7,-1c0,0 0,-2 0,-2c0,0 -7,3 -7,3zm-2,5c0,0 0,1 0,1c0,0 -1,-1 -1,-1c0,0 1,0 1,0zm-8,4c0,0 0,1 0,1c0,0 -1,-1 -1,-1c0,0 1,0 1,0zm229,0c0,0 5,1 5,1c0,0 -5,-1 -5,-1zm8,2c2.99,0.89 3.32,0.53 5,-2c0,0 -5,2 -5,2zm-245,3c0,0 -5,5 -5,5c0,0 5,-5 5,-5zm122,0c0,5.5 -0.34,15.77 -1.26,21c0,0 -3.15,12 -3.15,12c0,0 -1.81,13 -1.81,13c-3.69,17.7 -15.14,51.98 -23.32,68c-6.12,11.97 -8.36,19.52 -22.46,23.27c-4.05,1.07 -10.02,3.5 -12,-1.27c0,0 -9,0 -9,0c0,0 4,-4 4,-4c-4.6,-0.52 -9.79,0.28 -11,-5c0,0 -4.72,-1.4 -4.72,-1.4c0,0 -12.26,-12.77 -12.26,-12.77c0,0 -5.02,-12.83 -5.02,-12.83c0,0 -2,2 -2,2c0,0 -1,0 -1,0c0,0 -5.43,-9.04 -5.43,-9.04c-7.17,-15.12 -15.03,-33.89 -19.66,-49.87c-2.35,-8.09 -4.72,-13.36 -4.91,-22.09c2.54,3.31 4.76,12.51 6.39,17c0,0 18.69,44 18.69,44c3.86,7.81 8.74,16.34 16.92,20c0,0 -2,4 -2,4c4.21,0.43 6.56,-0.55 9,3c0,0 5.17,-1.58 5.17,-1.58c0,0 20.92,8.29 20.92,8.29c0,0 4.91,-0.71 4.91,-0.71c0,0 -2,5 -2,5c0,0 1,1 1,1c0,0 3,-1 3,-1c0,0 0,1 0,1c0,0 2,1 2,1c0,0 -8,2 -8,2c4.79,1.34 6.28,1.47 10,-2c0,0 3,2 3,2c0,0 3,-4 3,-4c0,0 -10,0 -10,0c5.32,-3.33 6.93,-2.78 11.57,-8.3c2.85,-3.39 4.68,-9.03 9.43,-9.7c0,0 -1,-4 -1,-4c0,0 2,-1 2,-1c0,0 0,-1 0,-1c2.21,-0.52 2.86,-0.46 4.61,-2.23c2.47,-2.49 7.94,-16.76 9.39,-20.77c5.18,-14.3 8.74,-28.99 11.25,-44c1.13,-6.79 3.04,-23.74 5.75,-29zm-133,8c0,0 0,1 0,1c0,0 -1,-1 -1,-1c0,0 1,0 1,0zm-2,12c0,0 0,1 0,1c0,0 -1,-1 -1,-1c0,0 1,0 1,0zm269.96,1c0,0 1.04,25 1.04,25c0,0 -1.04,-11 -1.04,-11c0,0 0,-14 0,-14zm-174.96,80c0,0 0,1 0,1c0,0 -1,-1 -1,-1c0,0 1,0 1,0zm-63,2c0,0 0,1 0,1c0,0 -1,-1 -1,-1c0,0 1,0 1,0zm1,1c0,0 0,1 0,1c0,0 -1,-1 -1,-1c0,0 1,0 1,0zm36,1c0,0 -7,2 -7,2c0,0 0,-2 0,-2c0,0 7,0 7,0zm-34,3c0,0 0,1 0,1c0,0 -1,-1 -1,-1c0,0 1,0 1,0zm38,1c0,0 6,1 6,1c-3.23,2.25 -8.85,3.5 -6,-1zm7,0c0,0 0,1 0,1c0,0 -1,-1 -1,-1c0,0 1,0 1,0zm-22,5c0,0 0,1 0,1c0,0 1,-1 1,-1c0,0 -1,0 -1,0zm33,3c0,0 0,1 0,1c0,0 1,-1 1,-1c0,0 -1,0 -1,0zm-18,2c0,0 0,1 0,1c0,0 1,-1 1,-1c0,0 -1,0 -1,0zm1,8c3.07,1.89 3.5,1.65 7,1c-3.07,-1.89 -3.5,-1.65 -7,-1z" stroke-width="2" stroke="black" fill="black" id="Selección"/>
 </g>
</svg>